<?xml version="1.0" encoding="UTF-8"?><svg id="Layer_2" xmlns="http://www.w3.org/2000/svg" viewBox="0 0 72.78 65.5"><defs><style>.cls-1{fill:#231f20;stroke-width:0px;}</style></defs><g id="Layer_1-2"><polygon class="cls-1" points="50.95 29.11 50.95 21.83 58.22 21.83 58.22 14.56 65.5 14.56 65.5 7.28 72.78 7.28 72.78 0 65.5 0 58.22 0 50.95 0 43.67 0 43.67 7.28 50.95 7.28 50.95 14.56 43.67 14.56 43.67 21.83 36.39 21.83 29.11 21.83 29.11 14.56 21.83 14.56 21.83 7.28 29.11 7.28 29.11 0 21.83 0 14.56 0 7.28 0 0 0 0 7.28 7.28 7.28 7.28 14.56 14.56 14.56 14.56 21.83 21.83 21.83 21.83 29.11 29.11 29.11 29.11 36.39 21.83 36.39 21.83 43.67 14.56 43.67 14.56 50.95 7.28 50.95 7.28 58.22 0 58.22 0 65.5 7.28 65.5 14.56 65.5 21.83 65.5 29.11 65.5 29.11 58.22 21.83 58.22 21.83 50.95 29.11 50.95 29.11 43.67 36.39 43.67 43.67 43.67 43.67 50.95 50.95 50.95 50.95 58.22 43.67 58.22 43.67 65.5 50.95 65.5 58.22 65.5 65.5 65.5 72.78 65.5 72.78 58.22 65.5 58.22 65.5 50.95 58.22 50.95 58.22 43.67 50.95 43.67 50.95 36.39 43.67 36.39 43.67 29.11 50.95 29.11"/></g></svg>